<?xml version="1.0" encoding="utf-8"?>
<!-- Generator: Adobe Illustrator 25.1.0, SVG Export Plug-In . SVG Version: 6.00 Build 0)  -->
<svg version="1.1" id="Layer_1" xmlns="http://www.w3.org/2000/svg" xmlns:xlink="http://www.w3.org/1999/xlink" x="0px" y="0px"
	 viewBox="0 0 512 512" style="enable-background:new 0 0 512 512;" xml:space="preserve">
<style type="text/css">
	.st0{fill:#4F9CD5;}
</style>
<g>
	<path class="st0" d="M178.91,439.64c15.69-3.92,30.26-6.47,43.35-13.55c38.87-21.14,61.13-52.47,61.49-97.86
		c0-46.76,0-93.53,0.31-140.34c0-9.68-2.5-13.4-12.28-12.17c-6.79,0.37-13.59,0.37-20.38,0L324.86,56l73.66,119.76
		c-6.5,0.34-13.01,0.34-19.51,0c-10.19-1.12-13.4,2.09-13.19,12.74c0.66,38.97,0.41,77.94,0,117.16c0,14.26-0.71,28.58-2.04,42.79
		C356.03,431.79,252.01,484.41,178.91,439.64z"/>
	<path class="st0" d="M248.29,374.59c-15.03,29.39-51.6,47.27-82.17,41.06c-27.3-5.65-50.64-33.98-51.65-67.34
		c-1.48-49.31-0.82-98.72-0.97-148.09c0-24.4,0-24.4,24.5-24.4c15.28,0,30.56,0.51,45.49,0c9.17-0.41,11.67,2.55,11.56,11.61
		c-0.46,44.62,0,89.25,0,133.82C194.86,358.13,210.09,373.72,248.29,374.59z"/>
</g>
</svg>
