<?xml version="1.0" encoding="utf-8"?>
<!-- Generator: Adobe Illustrator 25.1.0, SVG Export Plug-In . SVG Version: 6.00 Build 0)  -->
<svg version="1.1" id="Layer_1" xmlns="http://www.w3.org/2000/svg" xmlns:xlink="http://www.w3.org/1999/xlink" x="0px" y="0px"
	 viewBox="0 0 600 200" style="enable-background:new 0 0 600 200;" xml:space="preserve">
<style type="text/css">
	.st0{fill:#FFFFFF;}
</style>
<path class="st0" d="M255.92,91.09c0.46-0.39,1-0.66,1.58-0.81c0.51-0.11,1.04-0.17,1.56-0.17h8.75c0.65-0.03,1.29,0.09,1.88,0.36
	c0.46,0.22,0.87,0.54,1.19,0.94c0.31,0.44,0.58,0.9,0.79,1.39c0.21,0.53,0.41,1.09,0.6,1.71l2.43,7.02
	c1.09-1.39,2.18-2.82,3.28-4.27c1.13-1.47,2.45-2.79,3.92-3.93c1.6-1.23,3.38-2.21,5.27-2.9c2.48-0.87,5.09-1.29,7.72-1.22
	c5.03-0.05,10.02,0.94,14.65,2.92c4.35,1.9,8.27,4.67,11.52,8.13c3.26,3.5,5.81,7.59,7.53,12.05c3.61,9.66,3.61,20.29,0,29.95
	c-1.72,4.47-4.27,8.57-7.53,12.09c-3.27,3.44-7.19,6.2-11.54,8.09c-4.62,2-9.61,3-14.65,2.96c-2.2,0.04-4.39-0.26-6.49-0.9
	c-1.72-0.55-3.35-1.34-4.84-2.35c-1.37-0.92-2.63-1.99-3.77-3.18c-1.07-1.17-2.15-2.32-3.18-3.48v27.01
	c0.02,1.08-0.34,2.13-1.04,2.96c-0.85,0.87-2.04,1.32-3.26,1.22h-13.27c-0.51-0.01-1.02-0.1-1.51-0.28
	c-0.54-0.2-1.05-0.48-1.51-0.83c-0.48-0.34-0.88-0.79-1.17-1.3c-0.31-0.54-0.47-1.15-0.47-1.77V94.42
	c-0.02-0.66,0.14-1.31,0.45-1.88C255.13,92.01,255.5,91.53,255.92,91.09z M310.08,127.27c0.02-2.4-0.4-4.79-1.22-7.04
	c-0.76-2.14-1.91-4.11-3.41-5.82c-3.04-3.48-7.45-5.45-12.07-5.4c-2.38-0.01-4.73,0.45-6.93,1.36c-2.13,0.89-4.08,2.16-5.74,3.77
	c-1.66,1.59-3.01,3.46-3.99,5.53c-1.03,2.12-1.61,4.42-1.71,6.78v0.87c-0.02,2.47,0.47,4.92,1.45,7.19
	c0.92,2.18,2.26,4.16,3.93,5.84c1.69,1.66,3.68,2.98,5.85,3.92c2.25,0.96,4.68,1.46,7.13,1.45c2.34,0.02,4.65-0.47,6.78-1.45
	c2.01-0.94,3.81-2.27,5.29-3.92c1.5-1.71,2.65-3.69,3.41-5.84c0.84-2.31,1.25-4.75,1.22-7.21V127.27z"/>
<path class="st0" d="M342.95,72.98c-0.03-1.12,0.29-2.22,0.92-3.14c0.8-0.92,1.99-1.4,3.2-1.28h14.19c0.43,0.01,0.85,0.12,1.22,0.32
	c0.44,0.23,0.84,0.54,1.19,0.9c0.39,0.41,0.7,0.88,0.94,1.39c0.26,0.59,0.38,1.24,0.36,1.88v86.6c0.09,1.24-0.36,2.45-1.24,3.33
	c-0.89,0.78-2.04,1.18-3.22,1.13h-13.44c-1.18,0.12-2.36-0.29-3.2-1.13c-0.67-0.97-1-2.15-0.92-3.33L342.95,72.98z"/>
<path class="st0" d="M376.65,127.29c-0.03-6.81,1.76-13.5,5.18-19.39c1.63-2.79,3.62-5.36,5.91-7.64c2.29-2.3,4.87-4.28,7.68-5.89
	c5.89-3.39,12.57-5.17,19.37-5.16c10.07-0.08,19.75,3.88,26.88,10.99c3.44,3.46,6.2,7.55,8.11,12.05c2.01,4.76,3.03,9.89,2.97,15.06
	c0.01,3.46-0.44,6.9-1.36,10.24c-0.86,3.19-2.13,6.26-3.77,9.13c-6.78,11.68-19.28,18.86-32.79,18.83
	c-3.46,0.01-6.9-0.44-10.24-1.34c-6.36-1.71-12.15-5.06-16.81-9.71c-2.3-2.29-4.28-4.87-5.91-7.68c-1.64-2.87-2.9-5.94-3.77-9.13
	C377.16,134.28,376.66,130.79,376.65,127.29z M397.81,127.29c-0.02,2.44,0.38,4.87,1.19,7.17c0.73,2.12,1.87,4.08,3.35,5.76
	c1.47,1.64,3.28,2.96,5.29,3.86c2.2,0.97,4.58,1.45,6.98,1.41c2.35,0.03,4.67-0.45,6.81-1.41c1.97-0.91,3.73-2.23,5.16-3.86
	c1.45-1.69,2.55-3.65,3.24-5.76c1.51-4.62,1.51-9.61,0-14.23c-0.7-2.16-1.8-4.17-3.24-5.93c-1.42-1.69-3.17-3.06-5.16-4.03
	c-2.13-1-4.46-1.5-6.81-1.47c-4.71-0.11-9.22,1.91-12.27,5.5c-1.47,1.75-2.61,3.76-3.35,5.93
	C398.2,122.5,397.8,124.89,397.81,127.29z"/>
<g>
	<path class="st0" d="M171.42,155.09c5.8-1.45,11.18-2.39,16.02-5.01c14.36-7.81,22.59-19.39,22.72-36.16
		c0-17.28,0-34.56,0.11-51.86c0-3.58-0.92-4.95-4.54-4.5c-2.51,0.13-5.02,0.13-7.53,0l27.15-44.24l27.22,44.26
		c-2.4,0.13-4.81,0.13-7.21,0c-3.77-0.41-4.95,0.77-4.88,4.71c0.24,14.4,0.15,28.8,0,43.3c0,5.27-0.26,10.56-0.75,15.81
		C236.87,152.2,198.43,171.64,171.42,155.09z"/>
	<path class="st0" d="M197.06,131.05c-5.55,10.86-19.07,17.47-30.36,15.17c-10.09-2.09-18.71-12.56-19.09-24.89
		c-0.55-18.22-0.3-36.48-0.36-54.72c0-9.02,0-9.02,9.05-9.02c5.65,0,11.3,0.19,16.81,0c3.39-0.15,4.31,0.94,4.27,4.29
		c-0.17,16.49,0,32.98,0,49.45C177.31,124.97,182.94,130.73,197.06,131.05z"/>
</g>
</svg>
